<mxfile host="65bd71144e" scale="3" border="20">
    <diagram id="CX3G9Xh7dB3GCvSDx5av" name="第 1 页">
        <mxGraphModel dx="1330" dy="785" grid="0" gridSize="10" guides="1" tooltips="1" connect="1" arrows="1" fold="1" page="0" pageScale="1" pageWidth="1169" pageHeight="827" background="#ffffff" math="0" shadow="0">
            <root>
                <mxCell id="0"/>
                <mxCell id="1" parent="0"/>
                <mxCell id="259" style="edgeStyle=none;html=1;exitX=1;exitY=0.5;exitDx=0;exitDy=0;entryX=0;entryY=0.5;entryDx=0;entryDy=0;strokeColor=#000000;" edge="1" parent="1" source="229" target="232">
                    <mxGeometry relative="1" as="geometry"/>
                </mxCell>
                <mxCell id="229" value="&lt;font style=&quot;font-size: 16px;&quot;&gt;学生在线考试&lt;/font&gt;" style="rounded=0;whiteSpace=wrap;html=1;fillColor=#FFFFFF;strokeColor=#000000;strokeWidth=1;fontColor=#000000;fontSize=16;" parent="1" vertex="1">
                    <mxGeometry x="204" y="241" width="164" height="103" as="geometry"/>
                </mxCell>
                <mxCell id="261" value="" style="edgeStyle=none;html=1;strokeColor=#000000;" edge="1" parent="1" source="232" target="260">
                    <mxGeometry relative="1" as="geometry"/>
                </mxCell>
                <mxCell id="270" style="edgeStyle=none;html=1;exitX=0.5;exitY=1;exitDx=0;exitDy=0;entryX=0;entryY=0.5;entryDx=0;entryDy=0;strokeColor=#000000;rounded=0;" edge="1" parent="1" source="232" target="268">
                    <mxGeometry relative="1" as="geometry">
                        <Array as="points">
                            <mxPoint x="531" y="528"/>
                        </Array>
                    </mxGeometry>
                </mxCell>
                <mxCell id="232" value="&lt;span style=&quot;font-size: 16px;&quot;&gt;上传考总时间&lt;/span&gt;" style="rounded=0;whiteSpace=wrap;html=1;fillColor=#FFFFFF;strokeColor=#000000;strokeWidth=1;fontColor=#000000;fontSize=16;" parent="1" vertex="1">
                    <mxGeometry x="449" y="241" width="164" height="103" as="geometry"/>
                </mxCell>
                <mxCell id="269" style="edgeStyle=none;html=1;exitX=0.5;exitY=1;exitDx=0;exitDy=0;exitPerimeter=0;entryX=0.5;entryY=0;entryDx=0;entryDy=0;strokeColor=#000000;" edge="1" parent="1" source="243" target="229">
                    <mxGeometry relative="1" as="geometry"/>
                </mxCell>
                <mxCell id="243" value="开始" style="strokeWidth=1;html=1;shape=mxgraph.flowchart.terminator;whiteSpace=wrap;fillColor=#FFFFFF;strokeColor=#000000;fontColor=#000000;fontSize=16;" parent="1" vertex="1">
                    <mxGeometry x="218.5" y="62" width="135" height="97.5" as="geometry"/>
                </mxCell>
                <mxCell id="255" value="结束" style="strokeWidth=1;html=1;shape=mxgraph.flowchart.terminator;whiteSpace=wrap;fillColor=#FFFFFF;strokeColor=#000000;fontColor=#000000;fontSize=16;" parent="1" vertex="1">
                    <mxGeometry x="690.5" y="650" width="135" height="97.5" as="geometry"/>
                </mxCell>
                <mxCell id="265" value="" style="edgeStyle=none;html=1;strokeColor=#000000;" edge="1" parent="1" source="260" target="264">
                    <mxGeometry relative="1" as="geometry"/>
                </mxCell>
                <mxCell id="260" value="每分钟返回剩余时间" style="rounded=0;whiteSpace=wrap;html=1;fillColor=#FFFFFF;strokeColor=#000000;strokeWidth=1;fontColor=#000000;fontSize=16;" vertex="1" parent="1">
                    <mxGeometry x="676" y="244.5" width="164" height="103" as="geometry"/>
                </mxCell>
                <mxCell id="272" style="edgeStyle=none;rounded=0;html=1;exitX=0.5;exitY=0;exitDx=0;exitDy=0;entryX=0.5;entryY=0;entryDx=0;entryDy=0;strokeColor=#000000;" edge="1" parent="1" source="264" target="260">
                    <mxGeometry relative="1" as="geometry">
                        <Array as="points">
                            <mxPoint x="987" y="171"/>
                            <mxPoint x="758" y="171"/>
                        </Array>
                    </mxGeometry>
                </mxCell>
                <mxCell id="275" style="edgeStyle=none;rounded=0;html=1;exitX=0.5;exitY=1;exitDx=0;exitDy=0;entryX=1;entryY=0.5;entryDx=0;entryDy=0;strokeColor=#000000;fontColor=#000000;" edge="1" parent="1" source="264" target="268">
                    <mxGeometry relative="1" as="geometry">
                        <Array as="points">
                            <mxPoint x="987" y="528"/>
                        </Array>
                    </mxGeometry>
                </mxCell>
                <mxCell id="264" value="剩余时间&amp;nbsp; &amp;gt; 0 ?" style="rhombus;whiteSpace=wrap;html=1;fontSize=16;fillColor=#FFFFFF;strokeColor=#000000;fontColor=#000000;rounded=0;strokeWidth=1;" vertex="1" parent="1">
                    <mxGeometry x="912" y="256" width="149" height="87" as="geometry"/>
                </mxCell>
                <mxCell id="277" style="edgeStyle=none;rounded=0;html=1;exitX=0.5;exitY=1;exitDx=0;exitDy=0;entryX=0.5;entryY=0;entryDx=0;entryDy=0;entryPerimeter=0;strokeColor=#000000;fontColor=#000000;" edge="1" parent="1" source="268" target="255">
                    <mxGeometry relative="1" as="geometry"/>
                </mxCell>
                <mxCell id="268" value="提交试卷" style="rounded=0;whiteSpace=wrap;html=1;fillColor=#FFFFFF;strokeColor=#000000;strokeWidth=1;fontColor=#000000;fontSize=16;" vertex="1" parent="1">
                    <mxGeometry x="676" y="477" width="164" height="103" as="geometry"/>
                </mxCell>
                <mxCell id="273" value="&lt;font color=&quot;#000000&quot;&gt;否&lt;/font&gt;" style="text;html=1;align=center;verticalAlign=middle;resizable=0;points=[];autosize=1;strokeColor=none;fillColor=none;" vertex="1" parent="1">
                    <mxGeometry x="985" y="210" width="30" height="26" as="geometry"/>
                </mxCell>
                <mxCell id="276" value="是" style="text;html=1;align=center;verticalAlign=middle;resizable=0;points=[];autosize=1;strokeColor=none;fillColor=none;fontColor=#000000;" vertex="1" parent="1">
                    <mxGeometry x="988" y="383" width="30" height="26" as="geometry"/>
                </mxCell>
            </root>
        </mxGraphModel>
    </diagram>
</mxfile>